<?xml version="1.0" encoding="iso-8859-1"?>
<!-- Uploaded to: SVG Repo, www.svgrepo.com, Generator: SVG Repo Mixer Tools -->
<svg version="1.1" id="Layer_1" xmlns="http://www.w3.org/2000/svg" xmlns:xlink="http://www.w3.org/1999/xlink" 
	 viewBox="0 0 511.983 511.983" xml:space="preserve">
<path style="fill:#FFCE54;" d="M374.827,62.482C334.547,22.194,280.97,0,223.988,0S113.437,22.194,73.141,62.482
	c-40.288,40.296-62.482,93.864-62.482,150.847v245.329c0,5.891,4.781,10.67,10.672,10.67h405.307c5.906,0,10.688-4.779,10.688-10.67
	v-245.33C437.325,156.346,415.122,102.778,374.827,62.482z"/>
<path style="fill:#656D78;" d="M404.997,456.063l-10.671-42.672c-1.188-4.75-5.438-8.062-10.343-8.062H63.993
	c-4.891,0-9.164,3.312-10.352,8.062l-10.663,42.672c-0.211,0.859-0.32,1.719-0.32,2.594v42.67c0,5.875,4.781,10.656,10.671,10.656
	h341.31c5.906,0,10.687-4.781,10.687-10.656v-42.67C405.325,457.782,405.2,456.923,404.997,456.063z"/>
<g>
	<path style="fill:#434A54;" d="M53.329,511.983h341.31c5.906,0,10.687-4.781,10.687-10.656v-42.67H42.658v42.67
		C42.658,507.202,47.439,511.983,53.329,511.983z"/>
	<path style="fill:#434A54;" d="M469.323,266.663c-5.906,0-10.687-4.781-10.687-10.671v-95.997c0-5.891,4.78-10.664,10.687-10.664
		c5.875,0,10.656,4.773,10.656,10.664v95.996C479.979,261.882,475.198,266.663,469.323,266.663z"/>
</g>
<path style="fill:#656D78;" d="M490.636,309.333h-53.311c-5.906,0-10.688-4.781-10.688-10.672v-42.67
	c0-5.891,4.781-10.664,10.688-10.664h53.311c5.906,0,10.688,4.773,10.688,10.664v42.669
	C501.323,304.552,496.542,309.333,490.636,309.333z"/>
<path style="fill:#ED5564;" d="M469.323,106.668c-17.655,0-31.998,14.351-31.998,31.999c0,17.64,14.343,31.999,31.998,31.999
	c17.625,0,32-14.359,32-31.999C501.323,121.019,486.948,106.668,469.323,106.668z"/>
<path style="fill:#F6BB42;" d="M437.325,319.989c-5.906,0-10.688-4.781-10.688-10.656v-64.005c0-5.891,4.781-10.664,10.688-10.664
	c5.875,0,10.655,4.773,10.655,10.664v64.005C447.98,315.208,443.2,319.989,437.325,319.989z"/>
<g style="opacity:0.2;">
	<path d="M159.99,501.327H95.992c-5.891,0-10.664-4.781-10.664-10.672s4.773-10.672,10.664-10.672h63.998
		c5.891,0,10.664,4.781,10.664,10.672S165.881,501.327,159.99,501.327z"/>
</g>
<path style="opacity:0.2;enable-background:new    ;" d="M351.983,490.655c-5.891,0-10.656,4.766-10.656,10.672v10.656h21.312
	v-10.656C362.639,495.421,357.874,490.655,351.983,490.655z"/>
<path style="opacity:0.2;enable-background:new    ;" d="M309.329,490.655c-5.906,0-10.688,4.766-10.688,10.672v10.656h21.344
	v-10.656C319.985,495.421,315.204,490.655,309.329,490.655z"/>
<g>
	<path style="fill:#ED5564;" d="M159.896,394.659h-63.81c-5.891,0-10.664,4.766-10.664,10.67v32h85.139v-32
		C170.56,399.425,165.787,394.659,159.896,394.659z"/>
	<path style="fill:#ED5564;" d="M255.893,394.659h-63.811c-5.891,0-10.664,4.766-10.664,10.67v32h85.138v-32
		C266.556,399.425,261.784,394.659,255.893,394.659z"/>
	<path style="fill:#ED5564;" d="M351.889,394.659h-63.811c-5.891,0-10.655,4.766-10.655,10.67v32h85.122v-32
		C362.546,399.425,357.78,394.659,351.889,394.659z"/>
</g>
<rect x="63.991" y="202.661" style="fill:#F5F7FA;" width="85.33" height="149.32"/>
<path style="fill:#F6BB42;" d="M149.326,362.659H63.993c-5.891,0-10.664-4.781-10.664-10.672V202.665
	c0-5.891,4.773-10.671,10.664-10.671h85.333c5.891,0,10.664,4.781,10.664,10.671v149.322
	C159.99,357.878,155.217,362.659,149.326,362.659z M74.657,341.333h63.998V213.328H74.657V341.333z"/>
<rect x="298.641" y="202.661" style="fill:#F5F7FA;" width="85.34" height="149.32"/>
<path style="fill:#F6BB42;" d="M383.983,362.659h-85.342c-5.875,0-10.656-4.781-10.656-10.672V202.665
	c0-5.891,4.781-10.671,10.656-10.671h85.342c5.89,0,10.655,4.781,10.655,10.671v149.322
	C394.638,357.878,389.873,362.659,383.983,362.659z M309.329,341.333h63.998V213.328h-63.998V341.333z"/>
<rect x="181.321" y="202.661" style="fill:#F5F7FA;" width="85.33" height="149.32"/>
<path style="fill:#F6BB42;" d="M266.65,362.659h-85.325c-5.891,0-10.671-4.781-10.671-10.672V202.665
	c0-5.891,4.78-10.671,10.671-10.671h85.325c5.898,0,10.68,4.781,10.68,10.671v149.322
	C277.33,357.878,272.549,362.659,266.65,362.659z M191.989,341.333h63.998V213.328h-63.998V341.333z"/>
<g>
	<path style="fill:#ED5564;" d="M132.569,259.53c0.062-0.188,0.133-0.383,0.188-0.578c0.047-0.164,0.086-0.328,0.125-0.492
		s0.078-0.336,0.109-0.5c0.039-0.203,0.07-0.398,0.094-0.602c0.016-0.141,0.039-0.281,0.047-0.421
		c0.023-0.227,0.031-0.453,0.039-0.688c0-0.086,0.008-0.172,0.008-0.258c0-0.039,0-0.078,0-0.125
		c-0.008-0.219-0.023-0.438-0.039-0.656c-0.008-0.141-0.016-0.289-0.031-0.43c-0.023-0.18-0.055-0.359-0.078-0.531
		c-0.031-0.18-0.062-0.359-0.094-0.531c-0.031-0.133-0.07-0.266-0.109-0.398c-0.047-0.203-0.102-0.414-0.164-0.617
		c-0.039-0.102-0.086-0.211-0.117-0.312c-0.078-0.219-0.156-0.438-0.25-0.648c-0.047-0.109-0.109-0.219-0.164-0.328
		c-0.086-0.195-0.18-0.391-0.281-0.578c-0.086-0.148-0.172-0.289-0.266-0.43c-0.086-0.141-0.172-0.289-0.266-0.43
		c-0.117-0.172-0.25-0.344-0.383-0.516c-0.078-0.094-0.148-0.195-0.227-0.289c-0.141-0.18-0.305-0.344-0.461-0.508
		c-0.078-0.086-0.148-0.172-0.234-0.25c-0.148-0.148-0.312-0.289-0.469-0.43c-0.109-0.094-0.203-0.188-0.312-0.273
		c-0.141-0.109-0.281-0.211-0.43-0.32c-0.148-0.102-0.289-0.211-0.438-0.312c-0.125-0.078-0.25-0.148-0.375-0.227
		c-0.188-0.109-0.375-0.219-0.562-0.32c-0.039-0.023-0.078-0.047-0.117-0.062c-0.078-0.039-0.156-0.07-0.242-0.109
		c-0.203-0.094-0.406-0.188-0.609-0.273c-0.141-0.055-0.273-0.102-0.414-0.148c-0.188-0.062-0.375-0.125-0.57-0.188
		c-0.164-0.047-0.328-0.086-0.5-0.125c-0.164-0.039-0.328-0.078-0.492-0.109c-0.203-0.039-0.406-0.062-0.609-0.094
		c-0.141-0.016-0.273-0.031-0.414-0.047c-0.234-0.023-0.461-0.031-0.688-0.031c-0.086-0.008-0.172-0.016-0.258-0.016H90.515
		c-5.891,0-10.663,4.773-10.663,10.664c0,5.89,4.772,10.671,10.663,10.671h14.68l-13.539,26.857
		c-2.648,5.266-0.531,11.688,4.727,14.328c1.539,0.781,3.18,1.141,4.789,1.141c3.906,0,7.664-2.141,9.539-5.875l21.327-42.318
		c0.039-0.078,0.07-0.164,0.109-0.242c0.094-0.203,0.188-0.406,0.273-0.625C132.475,259.796,132.522,259.663,132.569,259.53z"/>
	<path style="fill:#ED5564;" d="M250.042,259.53c0.062-0.188,0.133-0.383,0.188-0.578c0.047-0.164,0.086-0.328,0.125-0.492
		s0.078-0.336,0.109-0.5c0.039-0.203,0.07-0.398,0.094-0.602c0.016-0.141,0.039-0.281,0.047-0.421
		c0.023-0.227,0.031-0.453,0.039-0.688c0-0.086,0.008-0.172,0.008-0.258c0-0.039,0-0.078,0-0.125
		c-0.008-0.219-0.023-0.438-0.039-0.656c-0.008-0.141-0.016-0.289-0.031-0.43c-0.023-0.18-0.055-0.359-0.086-0.531
		c-0.023-0.18-0.055-0.359-0.086-0.531c-0.031-0.133-0.07-0.266-0.109-0.398c-0.047-0.203-0.102-0.414-0.164-0.617
		c-0.039-0.102-0.078-0.211-0.117-0.312c-0.078-0.219-0.156-0.438-0.25-0.648c-0.047-0.109-0.109-0.219-0.164-0.328
		c-0.086-0.195-0.18-0.391-0.281-0.578c-0.086-0.148-0.172-0.289-0.266-0.43c-0.086-0.141-0.172-0.289-0.266-0.43
		c-0.117-0.172-0.25-0.344-0.383-0.516c-0.078-0.094-0.148-0.195-0.227-0.289c-0.141-0.18-0.305-0.344-0.461-0.508
		c-0.078-0.086-0.148-0.172-0.234-0.25c-0.148-0.148-0.312-0.289-0.469-0.43c-0.109-0.094-0.203-0.188-0.312-0.273
		c-0.141-0.109-0.289-0.211-0.43-0.32c-0.148-0.102-0.289-0.211-0.438-0.312c-0.125-0.078-0.25-0.148-0.375-0.227
		c-0.188-0.109-0.375-0.219-0.562-0.32c-0.039-0.023-0.078-0.047-0.117-0.062c-0.078-0.039-0.156-0.07-0.242-0.109
		c-0.203-0.094-0.406-0.188-0.609-0.273c-0.141-0.055-0.273-0.102-0.414-0.148c-0.188-0.062-0.375-0.125-0.57-0.188
		c-0.164-0.047-0.328-0.086-0.5-0.125c-0.164-0.039-0.328-0.078-0.492-0.109c-0.203-0.039-0.406-0.062-0.609-0.094
		c-0.141-0.016-0.273-0.031-0.414-0.047c-0.234-0.023-0.461-0.031-0.688-0.031c-0.086-0.008-0.172-0.016-0.258-0.016H207.99
		c-5.89,0-10.663,4.773-10.663,10.664c0,5.89,4.773,10.671,10.663,10.671h14.68l-13.539,26.857
		c-2.648,5.266-0.531,11.688,4.727,14.328c1.539,0.781,3.18,1.141,4.789,1.141c3.906,0,7.664-2.141,9.539-5.875l21.327-42.318
		c0.039-0.078,0.07-0.164,0.109-0.242c0.094-0.203,0.188-0.406,0.273-0.625C249.948,259.796,249.995,259.663,250.042,259.53z"/>
	<path style="fill:#ED5564;" d="M367.233,259.929c0.031-0.133,0.094-0.266,0.125-0.398c0.078-0.188,0.141-0.383,0.203-0.578
		c0.047-0.164,0.078-0.328,0.125-0.492s0.078-0.336,0.109-0.5c0.031-0.203,0.062-0.406,0.094-0.602
		c0.016-0.141,0.031-0.281,0.047-0.421c0.016-0.227,0.031-0.461,0.031-0.688c0.016-0.086,0.016-0.172,0.016-0.258
		c0-0.039,0-0.078,0-0.117c0-0.227-0.031-0.445-0.031-0.664c-0.016-0.141-0.031-0.289-0.031-0.43
		c-0.031-0.18-0.062-0.359-0.094-0.539c-0.031-0.172-0.062-0.352-0.094-0.516c-0.031-0.141-0.062-0.273-0.094-0.414
		c-0.062-0.203-0.125-0.406-0.188-0.602c-0.031-0.117-0.062-0.219-0.109-0.336c-0.078-0.211-0.156-0.422-0.234-0.633
		c-0.062-0.117-0.125-0.227-0.188-0.344c-0.078-0.188-0.156-0.375-0.266-0.562c-0.078-0.148-0.172-0.297-0.266-0.438
		s-0.172-0.281-0.266-0.414c-0.109-0.18-0.266-0.352-0.391-0.523c-0.062-0.102-0.141-0.195-0.219-0.289
		c-0.156-0.18-0.312-0.344-0.469-0.516c-0.078-0.078-0.156-0.164-0.219-0.242c-0.156-0.148-0.312-0.289-0.484-0.43
		c-0.109-0.094-0.203-0.188-0.297-0.273c-0.156-0.109-0.297-0.211-0.438-0.32c-0.156-0.102-0.281-0.211-0.438-0.312
		c-0.125-0.078-0.25-0.148-0.375-0.219c-0.188-0.117-0.375-0.227-0.562-0.328c-0.047-0.023-0.078-0.047-0.125-0.062
		c-0.062-0.039-0.156-0.07-0.219-0.102c-0.219-0.102-0.422-0.195-0.625-0.281c-0.141-0.055-0.281-0.102-0.406-0.148
		c-0.188-0.062-0.375-0.125-0.578-0.188c-0.172-0.047-0.328-0.086-0.5-0.125s-0.328-0.078-0.484-0.109
		c-0.219-0.039-0.406-0.07-0.625-0.094c-0.125-0.016-0.281-0.031-0.406-0.047c-0.234-0.023-0.469-0.031-0.703-0.039
		c-0.078,0-0.172-0.008-0.234-0.008h-31.998c-5.906,0-10.688,4.773-10.688,10.664c0,5.89,4.781,10.671,10.688,10.671h14.671
		l-13.547,26.857c-2.655,5.266-0.53,11.688,4.719,14.328c1.562,0.781,3.188,1.141,4.812,1.141c3.891,0,7.655-2.141,9.53-5.875
		l21.328-42.318c0.047-0.078,0.078-0.164,0.109-0.242C367.046,260.35,367.139,260.147,367.233,259.929z"/>
</g>
<g>
	<path style="fill:#F6BB42;" d="M223.988,138.667c-5.891,0-10.664-4.781-10.664-10.671V42.67c0-5.891,4.773-10.672,10.664-10.672
		s10.664,4.781,10.664,10.672v85.325C234.652,133.886,229.879,138.667,223.988,138.667z"/>
	<path style="fill:#F6BB42;" d="M191.997,147.237c-3.688,0-7.266-1.914-9.242-5.335l-42.67-73.896
		c-2.945-5.102-1.195-11.625,3.906-14.57c5.101-2.945,11.624-1.195,14.569,3.906l42.663,73.896
		c2.945,5.101,1.203,11.625-3.898,14.569C195.645,146.776,193.809,147.237,191.997,147.237z"/>
	<path style="fill:#F6BB42;" d="M168.553,170.666c-1.805,0-3.641-0.461-5.32-1.43l-73.896-42.67
		c-5.102-2.945-6.851-9.469-3.906-14.57c2.945-5.102,9.469-6.851,14.57-3.906l73.896,42.67c5.101,2.945,6.851,9.469,3.905,14.57
		C175.825,168.752,172.24,170.666,168.553,170.666z"/>
	<path style="fill:#F6BB42;" d="M279.424,170.666c-3.688,0-7.281-1.914-9.25-5.335c-2.945-5.102-1.195-11.625,3.906-14.57
		l73.903-42.67c5.094-2.945,11.625-1.195,14.562,3.906c2.938,5.101,1.188,11.625-3.906,14.57l-73.904,42.67
		C283.063,170.205,281.235,170.666,279.424,170.666z"/>
	<path style="fill:#F6BB42;" d="M255.979,147.237c-1.812,0-3.648-0.461-5.328-1.43c-5.102-2.945-6.844-9.468-3.898-14.569
		l42.67-73.896c2.938-5.101,9.469-6.851,14.562-3.906c5.094,2.945,6.844,9.469,3.906,14.57l-42.67,73.904
		C263.245,145.33,259.667,147.237,255.979,147.237z"/>
	<path style="fill:#F6BB42;" d="M231.527,178.204c-4.164,4.164-10.914,4.164-15.078,0c-4.172-4.164-4.172-10.921,0-15.085
		c4.164-4.164,10.914-4.164,15.078,0C235.698,167.283,235.698,174.04,231.527,178.204z"/>
</g>
<rect x="85.321" y="426.641" style="opacity:0.1;enable-background:new    ;" width="85.24" height="10.688"/>
<rect x="181.371" y="426.641" style="opacity:0.1;enable-background:new    ;" width="85.23" height="10.688"/>
<rect x="277.421" y="426.641" style="opacity:0.1;enable-background:new    ;" width="85.23" height="10.688"/>
</svg>